<?xml version="1.0"?>
<svg xmlns="http://www.w3.org/2000/svg" xmlns:xlink="http://www.w3.org/1999/xlink" xmlns:svgjs="http://svgjs.com/svgjs" version="1.1" width="512" height="512" x="0" y="0" viewBox="0 0 451.62667 451" style="enable-background:new 0 0 512 512" xml:space="preserve" class=""><g><path xmlns="http://www.w3.org/2000/svg" d="m451.625 168.554688c0 17.066406-6.613281 33.066406-18.773438 45.226562l-79.144531 79.144531-195.414062-195.414062 79.148437-79.144531c23.679688-24.105469 66.984375-24.105469 90.878906.214843l104.53125 104.53125c12.160157 12.160157 18.773438 28.375 18.773438 45.441407zm0 0" fill="#42a5f5" data-original="#42a5f5" style=""/><path xmlns="http://www.w3.org/2000/svg" d="m353.707031 292.925781-96.214843 96h-177.277344l-61.441406-61.226562c-11.945313-11.945313-18.773438-27.945313-18.773438-45.226563 0-17.492187 6.828125-33.492187 18.988281-45.652344l139.304688-139.308593zm0 0" fill="#eceff1" data-original="#eceff1" style="" class=""/><path xmlns="http://www.w3.org/2000/svg" d="m410.667969 410.261719h-384c-11.777344 0-21.335938-9.558594-21.335938-21.335938 0-11.773437 9.558594-21.332031 21.335938-21.332031h384c11.773437 0 21.332031 9.558594 21.332031 21.332031 0 11.777344-9.558594 21.335938-21.332031 21.335938zm0 0" fill="#8991a2" data-original="#607d8b" style="" class=""/></g></svg>
